<svg xmlns="http://www.w3.org/2000/svg" version="1.1" xmlns:xlink="http://www.w3.org/1999/xlink" xmlns:svgjs="http://svgjs.dev/svgjs" width="77.742882mm" height="89.459854mm"><svg width="77.742882mm" height="89.459854mm" viewBox="0 0 77.742882 89.459854" version="1.1" id="SvgjsSvg1178" xmlns:xlink="http://www.w3.org/1999/xlink" xmlns="http://www.w3.org/2000/svg" xmlns:svg="http://www.w3.org/2000/svg">
  <defs id="SvgjsDefs1177">
    <linearGradient xlink:href="#linearGradient1893" id="SvgjsLinearGradient1176" gradientUnits="userSpaceOnUse" x1="102.39093" y1="153.72871" x2="179.1338" y2="153.72871"></linearGradient>
    <linearGradient id="SvgjsLinearGradient1175">
      <stop style="stop-color:#4f4f4f;stop-opacity:1;" offset="0" id="SvgjsStop1174"></stop>
      <stop style="stop-color:#666666;stop-opacity:1;" offset="0.45177519" id="SvgjsStop1173"></stop>
      <stop style="stop-color:#858585;stop-opacity:1;" offset="1" id="SvgjsStop1172"></stop>
    </linearGradient>
    <linearGradient xlink:href="#linearGradient1896" id="SvgjsLinearGradient1171" gradientUnits="userSpaceOnUse" x1="130.4837" y1="115.93313" x2="165.66652" y2="186.98584"></linearGradient>
    <linearGradient id="SvgjsLinearGradient1170">
      <stop style="stop-color:#41413f;stop-opacity:1;" offset="0" id="SvgjsStop1169"></stop>
      <stop style="stop-color:#595959;stop-opacity:1;" offset="0.4966628" id="SvgjsStop1168"></stop>
      <stop style="stop-color:#727272;stop-opacity:1;" offset="1" id="SvgjsStop1167"></stop>
    </linearGradient>
    <linearGradient xlink:href="#linearGradient1881" id="SvgjsLinearGradient1166" gradientUnits="userSpaceOnUse" gradientTransform="translate(-80.37648,-93.204264)" x1="133.27191" y1="123.88125" x2="151.95926" y2="161.84698"></linearGradient>
    <linearGradient id="SvgjsLinearGradient1165">
      <stop style="stop-color:#504f4e;stop-opacity:1;" offset="0" id="SvgjsStop1164"></stop>
      <stop style="stop-color:#635545;stop-opacity:0.81176472;" offset="0.42938364" id="SvgjsStop1163"></stop>
      <stop style="stop-color:#f08000;stop-opacity:0.69781309;" offset="0.70629555" id="SvgjsStop1162"></stop>
    </linearGradient>
  </defs>
  <g id="SvgjsG1161" transform="translate(-21.128559,-15.270076)">
    <g id="SvgjsG1160" transform="translate(-80.76237,-93.72871)" style="stroke:url(#linearGradient1891);stroke-width:1.5;stroke-dasharray:none;stroke-opacity:1">
      <path style="opacity:1;fill:#000000;fill-opacity:1;fill-rule:nonzero;stroke:url(#linearGradient1890);stroke-width:2;stroke-linecap:round;stroke-linejoin:round;stroke-dasharray:none;stroke-dashoffset:0;stroke-opacity:1" d="m 140.76237,109.99877 37.87144,21.86497 v 31.86197 11.86797 l -37.87163,21.86497 -37.87125,-21.86497 v -43.72994 z" id="SvgjsPath1159"></path>
    </g>
    <path style="fill:none;fill-rule:nonzero;stroke:url(#linearGradient1897);stroke-width:2;stroke-linecap:round;stroke-linejoin:round;stroke-dasharray:none;stroke-dashoffset:0" d="m 48.71009,68.284499 h 22.57533 v -10.51588 l 2.31768,-2.026 -7.07801,-24.64312 H 53.47748 l -7.08059,24.64312 2.3132,2.026 v 10.51588 h 22.57533 v 0" id="SvgjsPath1158"></path>
    <path style="font-size:37.3333px;line-height:1.1;font-family:Ubuntu;-inkscape-font-specification:Ubuntu;letter-spacing:1.3px;word-spacing:0px;white-space:pre;fill:#ececec;stroke-width:1.95402;stroke-linecap:round;stroke-linejoin:round" d="m 459.64599,671.8777 q -3.024,0 -5.04,-0.672 -1.97866,-0.672 -2.72533,-1.12 l 0.93333,-2.464 q 0.784,0.448 2.50133,1.08267 1.75467,0.63467 4.33067,0.63467 2.94933,0 4.55466,-1.04534 1.60533,-1.08266 1.60533,-3.39733 0,-1.79199 -0.896,-2.79999 -0.85866,-1.04534 -2.31466,-1.68 -1.41867,-0.672 -3.136,-1.344 -2.09066,-0.82133 -3.65866,-1.71733 -1.53067,-0.93334 -2.38933,-2.24 -0.82134,-1.344 -0.82134,-3.36 0,-2.24 1.008,-3.77066 1.008,-1.53067 2.912,-2.31467 1.904,-0.784 4.51733,-0.784 2.16533,0 3.99466,0.56 1.86667,0.52267 2.87467,1.15734 l -0.97067,2.42666 q -1.08266,-0.74667 -2.65066,-1.19466 -1.53067,-0.448 -3.28533,-0.448 -2.38934,0 -3.92,0.97066 -1.53067,0.97067 -1.53067,3.17333 0,1.49333 0.74667,2.42667 0.74667,0.93333 2.05333,1.568 1.30667,0.63466 2.94933,1.30666 2.128,0.82133 3.808,1.75467 1.71733,0.896 2.72533,2.35199 1.008,1.41867 1.008,3.84533 0,2.352 -1.12,3.92 -1.12,1.568 -3.17333,2.38933 -2.05333,0.784 -4.89066,0.784 z m 14.96392,-0.56 v -19.33865 h 2.8 v 19.33865 z m 1.41867,-23.48264 q -0.82134,0 -1.41867,-0.56 -0.56,-0.56 -0.56,-1.49334 0,-0.896 0.56,-1.456 0.59733,-0.55999 1.41867,-0.55999 0.82133,0 1.38133,0.55999 0.59733,0.56 0.59733,1.456 0,0.93334 -0.59733,1.49334 -0.56,0.56 -1.38133,0.56 z m 16.08391,23.93064 q -1.64266,0 -2.98666,-0.18667 -1.344,-0.14933 -2.38933,-0.37333 -1.008,-0.26133 -1.75467,-0.48533 v -27.88798 l 2.8,-0.48533 v 10.71466 q 0.672,-0.48534 2.016,-0.97067 1.38133,-0.52266 3.17333,-0.52266 2.8,0 4.74133,1.30666 1.94133,1.26933 2.94933,3.54666 1.04533,2.27734 1.04533,5.22667 0,3.13599 -1.19466,5.41333 -1.19467,2.23999 -3.36,3.47199 -2.16533,1.232 -5.04,1.232 z m -0.0373,-2.50133 q 2.016,0 3.50933,-0.896 1.53067,-0.896 2.352,-2.576 0.82133,-1.71733 0.82133,-4.14399 0,-1.568 -0.336,-2.94933 -0.29866,-1.38134 -1.04533,-2.42667 -0.70933,-1.04533 -1.904,-1.60533 -1.15733,-0.59733 -2.83733,-0.59733 -1.60533,0 -2.912,0.56 -1.30666,0.52266 -1.94133,1.04533 v 13.10399 q 0.52267,0.14933 1.568,0.336 1.08267,0.14933 2.72533,0.14933 z m 15.71059,9.07199 q -0.93333,0 -1.75466,-0.224 -0.82134,-0.224 -1.08267,-0.37333 l 0.56,-2.27733 q 0.224,0.112 0.93333,0.29866 0.70934,0.224 1.41867,0.224 1.38133,0 2.352,-0.41066 0.97066,-0.41067 1.71733,-1.38133 0.74666,-0.97067 1.38133,-2.61334 -1.60533,-2.94933 -3.06133,-6.23466 -1.41867,-3.28533 -2.61333,-6.68266 -1.19467,-3.39733 -2.016,-6.68266 h 2.94933 q 0.41067,1.75467 1.008,3.77067 0.63467,2.01599 1.38133,4.18132 0.784,2.16534 1.71733,4.40533 0.93334,2.20267 1.97867,4.368 1.04533,-2.94933 1.82933,-5.56266 0.784,-2.65067 1.456,-5.33866 0.672,-2.72533 1.38133,-5.824 h 2.8 q -0.82133,3.584 -1.82933,7.09333 -0.97067,3.50933 -2.09067,6.75733 -1.08266,3.21066 -2.31466,6.08532 -0.93333,2.24 -1.97867,3.65867 -1.04533,1.41866 -2.50133,2.09066 -1.41866,0.672 -3.62133,0.672 z m 24.78259,-6.68266 q -1.792,-0.0747 -2.98666,-0.59733 -1.15734,-0.52267 -1.71734,-1.60533 -0.56,-1.12 -0.56,-2.98667 v -23.63198 l 2.8,-0.48533 v 23.93065 q 0,1.79199 0.63467,2.31466 0.672,0.52267 2.24,0.74667 z" id="SvgjsPath1157" transform="matrix(0.26458333,0,0,0.26458333,-70.28873,-92.285903)" aria-label="Sibyl"></path>
  </g>
</svg><style>@media (prefers-color-scheme: light) { :root { filter: none; } }
@media (prefers-color-scheme: dark) { :root { filter: none; } }
</style></svg>